<?xml version="1.0" standalone="no"?>
<!DOCTYPE svg PUBLIC "-//W3C//DTD SVG 20010904//EN"
 "http://www.w3.org/TR/2001/REC-SVG-20010904/DTD/svg10.dtd">
<svg version="1.0" xmlns="http://www.w3.org/2000/svg"
 width="300.000000pt" height="300.000000pt" viewBox="0 0 300.000000 300.000000"
 preserveAspectRatio="xMidYMid meet">
<metadata>
Created by potrace 1.11, written by Peter Selinger 2001-2013
</metadata>
<g transform="translate(0.000000,300.000000) scale(0.100000,-0.100000)"
fill="#000000" stroke="none">
<path d="M1779 2983 c-1 -10 -1 -28 -2 -40 0 -24 -6 -26 -84 -25 -38 0 -39 -1
-47 -48 -3 -19 -10 -50 -15 -67 -5 -18 -9 -33 -8 -33 54 0 361 -12 382 -14 17
-2 66 -7 109 -10 43 -4 86 -9 95 -11 9 -1 36 -6 61 -9 25 -4 54 -8 65 -10 11
-3 24 -5 28 -5 4 -1 -4 -21 -18 -45 -24 -41 -25 -47 -15 -117 25 -179 59 -369
80 -450 l19 -74 -5 65 c-3 36 -7 76 -9 90 -2 14 -6 57 -10 95 -6 72 -12 133
-20 195 -18 143 -20 131 29 179 l45 44 -4 115 c-2 63 -8 118 -12 123 -10 10
-111 28 -118 21 -3 -3 -5 -22 -5 -43 0 -26 -4 -37 -12 -34 -7 2 -30 7 -52 10
-52 7 -54 10 -50 50 1 19 0 36 -4 39 -4 2 -39 7 -79 10 l-72 7 -3 -43 -3 -42
-50 3 c-58 3 -59 3 -61 39 -1 15 -2 33 -3 40 -1 8 -23 12 -76 12 -64 0 -75 -2
-76 -17z"/>
<path d="M1630 2933 c-41 -111 -135 -257 -218 -341 -124 -122 -226 -278 -248
-377 -53 -235 6 -433 241 -805 85 -136 123 -213 149 -304 17 -56 18 -58 45
-53 24 5 29 3 29 -16 0 -12 7 -47 16 -78 l17 -57 58 -1 c47 0 60 3 66 17 6 14
35 119 35 125 0 1 -25 0 -55 -1 -30 -2 -55 0 -55 5 0 5 19 9 42 9 l42 -1 -3
85 c-12 330 -23 535 -31 543 -4 5 -25 7 -45 5 -35 -3 -39 -6 -41 -33 -3 -41
-13 -257 -20 -449 l-6 -159 26 5 c14 3 26 1 26 -3 0 -5 -13 -9 -29 -9 -32 0
-31 -1 -52 90 -19 88 -69 195 -156 336 -93 151 -152 269 -188 380 -58 175 -54
344 11 474 22 44 42 71 200 267 45 56 93 125 107 154 22 47 70 238 62 247 -2
2 -13 -23 -25 -55z"/>
<path d="M1717 2600 c-3 -11 -2 -22 2 -24 4 -3 8 6 9 20 2 29 -4 31 -11 4z"/>
<path d="M1820 2476 c0 -123 2 -136 18 -137 9 0 47 -2 85 -4 l67 -5 0 139 0
138 -85 2 -85 2 0 -135z"/>
<path d="M2100 2458 l0 -138 30 0 c17 0 31 -1 33 -1 1 -1 26 -5 55 -9 43 -5
52 -4 53 9 0 9 1 70 2 135 l1 120 -29 7 c-15 5 -54 10 -86 12 l-59 4 0 -139z"/>
<path d="M1719 2554 c0 -5 -2 -27 -4 -49 -3 -41 -10 -184 -21 -425 -3 -74 -8
-138 -11 -142 -2 -5 2 -8 9 -9 7 0 22 -2 33 -4 26 -5 32 6 29 62 -6 128 -14
292 -20 423 -4 80 -8 147 -10 149 -2 2 -4 0 -5 -5z"/>
<path d="M1487 2022 c-11 -2 -17 -13 -18 -30 -3 -95 4 -88 -91 -95 l-48 -4 0
58 c0 58 -1 59 -27 59 -60 0 -62 -24 -12 -174 39 -118 59 -151 89 -148 206 18
507 16 700 -3 179 -18 380 -51 394 -65 5 -5 -5 -31 -24 -62 l-33 -53 32 -195
c18 -107 35 -208 38 -225 2 -16 17 -102 33 -190 15 -88 31 -178 34 -200 6 -38
41 -240 51 -297 3 -16 7 -40 10 -55 3 -16 9 -55 15 -88 5 -33 12 -69 14 -80 2
-11 7 -40 11 -65 10 -69 15 -80 34 -80 30 0 39 18 30 60 -5 21 -11 58 -13 81
-3 24 -12 87 -20 139 -17 107 -16 100 -51 345 -14 99 -28 191 -30 205 -9 52
-23 147 -30 200 -4 30 -16 109 -20 130 -2 8 -6 38 -9 65 -4 28 -9 61 -11 75
-3 14 -7 42 -10 62 -2 21 -7 53 -10 71 -6 29 -1 41 35 86 l41 52 -3 165 -3
165 -40 10 c-66 17 -79 20 -97 25 -16 5 -18 -2 -18 -56 0 -48 -3 -61 -13 -57
-8 3 -39 8 -70 12 l-57 7 2 54 c1 29 0 56 -3 59 -8 8 -38 13 -113 20 l-64 6 3
-50 c1 -27 -1 -53 -4 -58 -3 -4 -34 -7 -68 -5 l-63 4 -1 46 c-1 26 -1 53 0 60
1 6 -6 12 -16 13 -10 0 -53 2 -95 4 l-78 4 0 -59 0 -60 -71 0 -71 0 2 38 c4
86 8 82 -73 79 -40 -1 -80 -3 -90 -5z"/>
<path d="M585 1885 c-5 -1 -36 -10 -67 -20 -100 -29 -171 -91 -220 -193 -50
-103 -44 -241 15 -327 53 -79 273 -252 406 -320 l34 -17 -7 24 c-15 47 -19
175 -6 212 16 49 54 92 104 118 64 34 183 32 257 -4 100 -50 197 -170 224
-280 6 -22 12 -26 37 -26 26 1 29 4 23 27 -15 68 -81 178 -141 239 -113 113
-237 149 -378 108 -114 -34 -193 -122 -205 -231 l-6 -55 -87 58 c-111 73 -172
131 -206 196 -23 44 -27 63 -27 136 0 75 3 91 27 131 51 87 151 152 252 164
139 18 364 -91 554 -265 118 -109 245 -304 288 -443 14 -45 23 -59 41 -63 35
-9 38 0 23 59 -15 60 -13 55 -69 168 -131 263 -425 517 -681 588 -65 18 -154
26 -185 16z"/>
<path d="M515 1619 c-5 -33 -13 -53 -24 -57 -9 -3 -29 -14 -45 -23 l-30 -18
46 -20 c38 -16 47 -25 53 -53 15 -74 14 -74 55 -33 36 35 40 36 85 29 27 -4
46 -3 43 2 -2 5 -13 26 -23 46 -19 37 -19 38 3 83 l22 46 -42 -6 c-23 -4 -46
-9 -50 -11 -4 -3 -23 11 -43 31 -20 19 -38 35 -40 35 -2 0 -6 -23 -10 -51z"/>
<path d="M1869 1526 c-4 -4 -3 -339 1 -346 3 -4 46 -10 96 -12 l92 -4 0 173
c0 126 -3 173 -11 174 -7 0 -23 2 -37 4 -29 4 -139 13 -141 11z"/>
<path d="M2179 1496 c-5 -4 -3 -338 1 -341 3 -2 42 -7 85 -10 44 -4 85 -8 90
-9 6 0 11 62 12 167 1 123 -1 167 -10 168 -15 1 -47 5 -119 17 -32 5 -59 9
-59 8z"/>
<path d="M1355 1040 c-73 -6 -93 -17 -101 -56 -4 -21 0 -37 14 -54 20 -25 23
-25 184 -27 89 -1 168 0 174 2 8 2 7 22 -4 69 -13 55 -19 66 -36 66 -12 1 -55
2 -96 3 -41 1 -102 0 -135 -3z"/>
<path d="M1830 1010 c-6 -11 -8 -20 -6 -20 3 0 -1 -19 -9 -41 -18 -49 -12 -59
51 -90 l43 -22 51 50 51 51 -79 46 c-43 25 -82 46 -85 46 -3 0 -11 -9 -17 -20z"/>
<path d="M1967 872 l-48 -49 32 -56 c25 -43 36 -54 48 -48 9 5 40 14 69 21 29
7 52 15 50 19 -11 26 -93 161 -98 161 -3 0 -27 -22 -53 -48z"/>
<path d="M1339 878 c-3 -73 -38 -162 -84 -216 -15 -18 -46 -42 -68 -54 -45
-23 -140 -32 -189 -17 -17 5 -33 7 -35 6 -9 -10 77 -92 120 -114 196 -99 433
82 463 355 6 51 6 52 -20 52 -22 0 -26 -5 -27 -27 -1 -51 -24 -134 -51 -186
-27 -54 -95 -125 -143 -150 -46 -24 -142 -28 -190 -7 l-30 12 50 12 c125 30
208 115 247 251 21 73 18 89 -14 93 -18 2 -28 -1 -29 -10z"/>
<path d="M1579 888 c0 -2 -2 -12 -3 -23 -22 -174 -91 -353 -215 -555 -21 -36
-39 -65 -38 -66 1 -1 45 -23 97 -50 104 -53 154 -85 243 -152 34 -26 53 -36
46 -24 -15 23 -178 185 -228 226 l-34 27 46 94 c80 161 130 311 142 422 3 32
8 68 11 81 4 19 0 22 -31 22 -19 0 -35 -1 -36 -2z"/>
<path d="M1659 880 c-3 -23 -2 -39 6 -100 4 -36 9 -72 10 -80 1 -8 5 -43 9
-77 4 -34 8 -70 10 -80 2 -10 7 -47 11 -83 15 -130 20 -136 30 -33 4 43 8 85
10 93 1 8 6 42 9 75 4 33 9 74 11 90 2 17 7 53 10 80 3 28 8 66 11 87 l5 36
-65 1 c-36 0 -67 -4 -67 -9z"/>
<path d="M2053 715 c-24 -7 -43 -10 -43 -7 0 3 -5 1 -10 -4 -9 -9 -14 -343
-11 -646 l1 -57 68 2 67 2 2 363 c3 407 10 374 -74 347z"/>
</g>
</svg>
