<?xml version="1.0" encoding="utf-8"?>
<!-- Generator: Adobe Illustrator 14.0.0, SVG Export Plug-In . SVG Version: 6.00 Build 43363)  -->
<!DOCTYPE svg PUBLIC "-//W3C//DTD SVG 1.1//EN" "http://www.w3.org/Graphics/SVG/1.1/DTD/svg11.dtd">
<svg version="1.1" id="Layer_1" xmlns="http://www.w3.org/2000/svg" xmlns:xlink="http://www.w3.org/1999/xlink" x="0px" y="0px"
	 width="744.094px" height="1052.36px" viewBox="0 0 744.094 1052.36" enable-background="new 0 0 744.094 1052.36"
	 xml:space="preserve">
<g>
	<defs>
		<rect id="SVGID_1_" y="0" width="744.094" height="1052.361"/>
	</defs>
	<clipPath id="SVGID_2_">
		<use xlink:href="#SVGID_1_"  overflow="visible"/>
	</clipPath>
	<path clip-path="url(#SVGID_2_)" fill="#0042DF" d="M343.667,121.303l-0.42-16.315c0,0-2.976-0.822-8.813-1.786v5.804
		c-2.351-0.353-5.124-0.73-8.279-1.095v-5.879c-3.059-0.368-6.518-0.716-10.377-1.01v5.887c-2.609-0.202-5.374-0.381-8.276-0.526
		v-5.866c-3.384-0.157-6.996-0.267-10.842-0.313v5.836c-1.348-0.017-2.716-0.028-4.105-0.028c-1.412,0-2.905,0.038-4.274,0.057
		c0,0-0.153,0.726-0.271,1.29c-0.815,3.881-1.379,6.57-2.239,8.989c2.183-0.058,4.415-0.089,6.691-0.089
		c20.175,0,37.194,2.472,45.592,3.954l-3.669,5.954c4.032,31.018,7.57,42.37,7.57,42.37l-4.279-40.972L343.667,121.303z"/>
	<polygon clip-path="url(#SVGID_2_)" fill="#0042DF" points="313.569,244.181 306.621,251.128 310.793,258.354 320.284,255.811 	"/>
	<polygon clip-path="url(#SVGID_2_)" fill="#0042DF" points="298.31,245.918 305.522,250.081 312.468,243.134 300.854,236.428 	"/>
	<polygon clip-path="url(#SVGID_2_)" fill="#0042DF" points="288.523,245.538 296.841,245.538 299.384,236.047 285.98,236.047 	"/>
	<path clip-path="url(#SVGID_2_)" fill="#0042DF" d="M284.409,236.047h-18.948c-7.289,0-6.865,9.491,0,9.491h21.491L284.409,236.047
		z"/>
	<path clip-path="url(#SVGID_2_)" fill="#0042DF" d="M284.409,236.047h-18.948c-7.289,0-6.865,9.491,0,9.491h21.491L284.409,236.047
		z"/>
	<path clip-path="url(#SVGID_2_)" fill="#0042DF" d="M320.725,307.737v-50.473l-9.49,2.543v48.161
		C314.496,307.905,317.666,307.826,320.725,307.737"/>
	<path clip-path="url(#SVGID_2_)" fill="#0042DF" d="M281.977,234.896h4.628c-2.246-14.199-9.156-23.608-12.529-29.088
		c-6.58-10.695-26.662-42.578-7.076-65.819c19.952-23.668,16.786-19.581,21.381-39.781c-8.216,21.187-10.62,20.392-24.506,36.655
		c-22.199,25.998-7.46,51.3,10.038,78.325C278.271,221.917,280.797,228.515,281.977,234.896"/>
	<path clip-path="url(#SVGID_2_)" fill="#0042DF" d="M273.253,289.234c9.82-16.816,13.566-30.898,14.026-42.544h-4.555
		c-0.963,17.946-11.017,33.551-17.697,44.685c15.138,6.087,27.644,16.782,27.644,16.782S283.126,296.804,273.253,289.234"/>
	<path clip-path="url(#SVGID_2_)" fill="#0042DF" d="M346.081,195.526l-5.031,8.656l17.445,101.776
		c2.445-0.164,3.782-0.269,3.782-0.269l-14.976-101.507l5.595-7.094l-0.492-22.709c0,0-3.504-1.144-10.368-2.486v8.078
		c-2.763-0.491-6.024-1.016-9.735-1.524v-8.182c-3.598-0.51-7.665-0.997-12.204-1.405v8.194c-3.071-0.283-6.321-0.532-9.736-0.732
		v-8.166c-3.979-0.219-8.23-0.372-12.753-0.436v8.123c-1.585-0.025-3.193-0.038-4.827-0.038c-1.661,0-3.299,0.014-4.908,0.04v-8.119
		c-4.517,0.068-8.771,0.225-12.752,0.447v8.153c-3.415,0.202-6.665,0.452-9.735,0.735v-8.178c-1.823,0.164-3.568,0.342-5.242,0.528
		c1.041,7.889,3.953,15.5,7.086,21.925c7.653-0.753,16.249-1.27,25.442-1.27C316.232,190.066,336.134,193.458,346.081,195.526"/>
	<polygon clip-path="url(#SVGID_2_)" fill="#F2CA06" points="288.024,246.69 292.682,284.957 297.318,246.69 	"/>
	<path clip-path="url(#SVGID_2_)" fill="#F2CA06" d="M294.98,174.668l-2.298-49.654l-2.306,49.655
		C291.908,174.656,293.44,174.656,294.98,174.668"/>
	<path clip-path="url(#SVGID_2_)" fill="#F2CA06" d="M292.671,191.218c-1.019,0-2.039,0.007-3.063,0.021l-2.03,43.657h10.188
		l-2.02-43.657C294.729,191.227,293.704,191.218,292.671,191.218"/>
	<path clip-path="url(#SVGID_2_)" fill="#0042DF" d="M217.711,177.254c-1.435,0-2.805,0.125-4.098,0.385
		c-21.786,4.364-25.602,24.714-19.457,35.89c6.146,11.178,31.265,24.73,31.265,24.73c-6.246-19.542,4.219-26.543,15.187-26.544
		h0.026c10.029,0.01,21.665,8.392,24.958,23.181h3.934c-3.538-15.677-16.984-26.679-27.481-26.69
		c-7.233,0.001-14.975,2.306-18.455,7.072c-3.032,4.152-5.309,7.691-4.312,14.246c-8.373-5.094-16.943-10.175-20.61-16.845
		c-2.952-5.369-4.02-12.376-1.213-18.416c2.161-4.646,6.883-10.587,17.58-12.729c1.084-0.216,1.985-0.202,3.234-0.202
		c9.577,0,22.796,6.832,34.397,16.974c6.028,5.271,9.948,10.301,14.1,16.642c3.779,5.777,7.438,13.404,8.756,19.949h4.114
		C272.971,203.838,238.563,177.255,217.711,177.254"/>
	<path clip-path="url(#SVGID_2_)" fill="#0042DF" d="M277.542,246.69c-0.309,8.166-3.3,15.53-7.096,19.79
		c-3.976,4.464-8.425,7.005-13.509,7.005c-2.991,0-6.552-0.867-9.041-2.553c12.255-0.489,21.486-10.691,22.304-24.242h-3.796
		c-0.917,11.777-7.174,21.28-18.69,21.28c-2.373,0-4.968-0.402-7.788-1.272c4.22,6.721,10.19,9.768,16.263,9.768
		c11.779,0,23.954-11.452,24.555-29.776H277.542z"/>
	<path clip-path="url(#SVGID_2_)" fill="#F2CA06" d="M324.183,228.091c5.096,0.45,9.538,0.956,13.198,1.433v-22.976
		c-3.783-0.644-8.287-1.353-13.198-2.01V228.091z"/>
	<path clip-path="url(#SVGID_2_)" fill="#F2CA06" d="M302.684,226.847c4.71,0.132,9.157,0.347,13.296,0.616v-23.921
		c-4.33-0.469-8.821-0.861-13.296-1.111V226.847z"/>
	<path clip-path="url(#SVGID_2_)" fill="#F2CA06" d="M299.606,145.896c3.891,0.133,7.813,0.353,11.567,0.616v-18.801
		c-3.702-0.226-7.61-0.411-11.567-0.516V145.896z"/>
	<path clip-path="url(#SVGID_2_)" fill="#F2CA06" d="M319,147.134c4.705,0.417,8.811,0.854,11.782,1.192v-18.953
		c-2.948-0.319-7.031-0.725-11.782-1.106V147.134z"/>
	<polygon clip-path="url(#SVGID_2_)" fill="#FFD03F" points="221.948,208.444 214.864,207.421 210.006,212.678 208.789,205.625 
		202.289,202.629 208.621,199.292 209.463,192.182 214.593,197.174 221.612,195.777 218.451,202.199 	"/>
	<path clip-path="url(#SVGID_2_)" fill="#0042DF" d="M370.58,228.402c1.229,0.788,2.995,1.388,4.887,1.388
		c2.805,0,4.445-1.483,4.445-3.626c0-1.954-1.137-3.121-4.004-4.193c-3.469-1.26-5.612-3.09-5.612-6.052
		c0-3.311,2.743-5.77,6.872-5.77c2.145,0,3.752,0.505,4.666,1.041l-0.756,2.238c-0.662-0.41-2.082-1.008-4.004-1.008
		c-2.9,0-4.004,1.733-4.004,3.183c0,1.986,1.293,2.963,4.225,4.099c3.594,1.387,5.391,3.12,5.391,6.241
		c0,3.278-2.396,6.147-7.408,6.147c-2.049,0-4.288-0.63-5.423-1.386L370.58,228.402z"/>
	<path clip-path="url(#SVGID_2_)" fill="#0042DF" d="M397.438,231.208c-0.725,0.347-2.332,0.883-4.383,0.883
		c-4.602,0-7.596-3.121-7.596-7.786c0-4.698,3.215-8.134,8.195-8.134c1.639,0,3.09,0.41,3.846,0.819l-0.631,2.113
		c-0.66-0.347-1.701-0.725-3.215-0.725c-3.498,0-5.391,2.616-5.391,5.768c0,3.532,2.27,5.707,5.297,5.707
		c1.576,0,2.615-0.378,3.404-0.725L397.438,231.208z"/>
	<path clip-path="url(#SVGID_2_)" fill="#0042DF" d="M414.303,223.989c0,5.642-3.941,8.101-7.598,8.101
		c-4.1,0-7.314-3.026-7.314-7.849c0-5.075,3.373-8.071,7.566-8.071C411.338,216.17,414.303,219.354,414.303,223.989
		 M402.229,224.146c0,3.342,1.891,5.864,4.602,5.864c2.648,0,4.635-2.491,4.635-5.927c0-2.584-1.293-5.832-4.57-5.832
		C403.646,218.251,402.229,221.278,402.229,224.146"/>
	<path clip-path="url(#SVGID_2_)" fill="#0042DF" d="M430.566,227.552c0,1.607,0.033,2.994,0.127,4.192h-2.459l-0.158-2.49h-0.063
		c-0.693,1.23-2.332,2.837-5.043,2.837c-2.396,0-5.266-1.355-5.266-6.684v-8.92h2.773v8.417c0,2.9,0.916,4.886,3.406,4.886
		c1.859,0,3.152-1.293,3.656-2.553c0.158-0.379,0.252-0.883,0.252-1.419v-9.331h2.773V227.552z"/>
	<path clip-path="url(#SVGID_2_)" fill="#0042DF" d="M438.51,212.829v3.657h3.973v2.113h-3.973v8.227
		c0,1.892,0.537,2.964,2.082,2.964c0.756,0,1.197-0.064,1.607-0.19l0.125,2.113c-0.535,0.188-1.387,0.378-2.459,0.378
		c-1.291,0-2.332-0.442-2.994-1.166c-0.756-0.852-1.072-2.207-1.072-4.004v-8.322h-2.363v-2.113h2.363v-2.837L438.51,212.829z"/>
	<path clip-path="url(#SVGID_2_)" fill="#0042DF" d="M448.691,212.199c0,0.945-0.662,1.702-1.766,1.702
		c-1.008,0-1.67-0.757-1.67-1.702c0-0.946,0.693-1.735,1.734-1.735C447.998,210.464,448.691,211.221,448.691,212.199
		 M445.604,216.486h2.773v15.258h-2.773V216.486z"/>
	<path clip-path="url(#SVGID_2_)" fill="#0042DF" d="M452.979,220.616c0-1.608-0.031-2.869-0.127-4.13h2.459l0.158,2.522h0.063
		c0.758-1.418,2.523-2.837,5.045-2.837c2.111,0,5.391,1.26,5.391,6.494v9.079h-2.773v-8.795c0-2.459-0.916-4.509-3.531-4.509
		c-1.797,0-3.217,1.293-3.721,2.838c-0.125,0.347-0.189,0.819-0.189,1.292v9.174h-2.773V220.616z"/>
	<path clip-path="url(#SVGID_2_)" fill="#0042DF" d="M483.525,229.506c0,3.531-0.727,5.643-2.176,6.998
		c-1.514,1.357-3.656,1.829-5.58,1.829c-1.828,0-3.846-0.441-5.076-1.261l0.695-2.144c1.008,0.662,2.584,1.229,4.477,1.229
		c2.836,0,4.916-1.481,4.916-5.358v-1.671h-0.063c-0.818,1.418-2.49,2.553-4.854,2.553c-3.783,0-6.494-3.215-6.494-7.44
		c0-5.17,3.373-8.07,6.902-8.07c2.648,0,4.068,1.356,4.762,2.616h0.063l0.094-2.3h2.459c-0.094,1.071-0.125,2.333-0.125,4.161
		V229.506z M480.75,222.508c0-0.474-0.031-0.883-0.156-1.229c-0.506-1.64-1.83-2.964-3.879-2.964c-2.646,0-4.539,2.238-4.539,5.769
		c0,2.994,1.545,5.486,4.508,5.486c1.734,0,3.279-1.073,3.846-2.838c0.158-0.473,0.221-1.009,0.221-1.482V222.508z"/>
	<rect x="370.895" y="248.323" clip-path="url(#SVGID_2_)" fill="#0042DF" width="2.775" height="21.248"/>
	<path clip-path="url(#SVGID_2_)" fill="#0042DF" d="M382.779,248.323h2.775v14.218c0,5.643-2.775,7.377-6.432,7.377
		c-1.041,0-2.27-0.221-2.932-0.504l0.377-2.238c0.568,0.22,1.389,0.409,2.334,0.409c2.459,0,3.877-1.104,3.877-5.265V248.323z"/>
	<path clip-path="url(#SVGID_2_)" fill="#0042DF" d="M389.65,266.766c0.852,0.504,2.303,1.072,3.689,1.072
		c1.986,0,2.932-0.978,2.932-2.271c0-1.324-0.789-2.018-2.807-2.774c-2.773-1.008-4.066-2.491-4.066-4.319
		c0-2.459,2.018-4.477,5.266-4.477c1.545,0,2.9,0.411,3.719,0.947l-0.662,2.017c-0.598-0.379-1.701-0.915-3.121-0.915
		c-1.639,0-2.521,0.947-2.521,2.081c0,1.261,0.883,1.828,2.869,2.617c2.617,0.977,4.004,2.301,4.004,4.571
		c0,2.711-2.113,4.602-5.676,4.602c-1.67,0-3.215-0.441-4.287-1.071L389.65,266.766z"/>
	<path clip-path="url(#SVGID_2_)" fill="#0042DF" d="M402.133,266.766c0.852,0.504,2.303,1.072,3.689,1.072
		c1.986,0,2.932-0.978,2.932-2.271c0-1.324-0.789-2.018-2.807-2.774c-2.773-1.008-4.066-2.491-4.066-4.319
		c0-2.459,2.018-4.477,5.266-4.477c1.545,0,2.9,0.411,3.719,0.947l-0.662,2.017c-0.598-0.379-1.701-0.915-3.121-0.915
		c-1.639,0-2.521,0.947-2.521,2.081c0,1.261,0.883,1.828,2.869,2.617c2.617,0.977,4.004,2.301,4.004,4.571
		c0,2.711-2.113,4.602-5.676,4.602c-1.67,0-3.215-0.441-4.287-1.071L402.133,266.766z"/>
	<path clip-path="url(#SVGID_2_)" fill="#0042DF" d="M416.539,262.446c0.063,3.752,2.428,5.297,5.232,5.297
		c1.986,0,3.217-0.346,4.225-0.788l0.504,1.985c-0.977,0.442-2.68,0.978-5.105,0.978c-4.697,0-7.504-3.121-7.504-7.724
		c0-4.602,2.711-8.196,7.156-8.196c5.012,0,6.305,4.351,6.305,7.156c0,0.568-0.031,0.978-0.094,1.292H416.539z M424.672,260.461
		c0.031-1.734-0.725-4.477-3.846-4.477c-2.838,0-4.035,2.554-4.256,4.477H424.672z"/>
	<rect x="430.787" y="247.188" clip-path="url(#SVGID_2_)" fill="#0042DF" width="2.772" height="22.383"/>
	<path clip-path="url(#SVGID_2_)" fill="#0042DF" d="M451.277,267.333c0,3.531-0.725,5.643-2.174,6.998
		c-1.514,1.357-3.658,1.829-5.58,1.829c-1.83,0-3.848-0.441-5.076-1.261l0.693-2.144c1.01,0.662,2.586,1.229,4.477,1.229
		c2.838,0,4.918-1.481,4.918-5.358v-1.671h-0.063c-0.82,1.418-2.49,2.553-4.855,2.553c-3.783,0-6.494-3.215-6.494-7.44
		c0-5.17,3.373-8.07,6.904-8.07c2.648,0,4.066,1.356,4.76,2.616h0.063l0.096-2.3h2.459c-0.096,1.071-0.127,2.333-0.127,4.161
		V267.333z M448.504,260.335c0-0.474-0.031-0.883-0.158-1.229c-0.504-1.64-1.828-2.964-3.877-2.964
		c-2.648,0-4.539,2.238-4.539,5.769c0,2.994,1.543,5.486,4.508,5.486c1.732,0,3.277-1.073,3.846-2.838
		c0.158-0.473,0.221-1.009,0.221-1.482V260.335z"/>
	<path clip-path="url(#SVGID_2_)" fill="#0042DF" d="M455.658,259.073c0-1.797-0.031-3.341-0.127-4.76h2.428l0.127,3.027h0.094
		c0.693-2.049,2.396-3.342,4.256-3.342c0.285,0,0.504,0.031,0.758,0.063v2.616c-0.285-0.063-0.568-0.063-0.947-0.063
		c-1.953,0-3.342,1.45-3.719,3.531c-0.063,0.378-0.096,0.852-0.096,1.292v8.134h-2.773V259.073z"/>
	<path clip-path="url(#SVGID_2_)" fill="#0042DF" d="M479.459,261.816c0,5.642-3.939,8.101-7.598,8.101
		c-4.098,0-7.313-3.026-7.313-7.849c0-5.075,3.373-8.071,7.565-8.071C476.496,253.998,479.459,257.182,479.459,261.816
		 M467.385,261.974c0,3.342,1.893,5.864,4.604,5.864c2.647,0,4.632-2.491,4.632-5.927c0-2.584-1.291-5.832-4.57-5.832
		C468.805,256.079,467.385,259.105,467.385,261.974"/>
	<path clip-path="url(#SVGID_2_)" fill="#0042DF" d="M484.502,262.446c0.063,3.752,2.428,5.297,5.232,5.297
		c1.986,0,3.217-0.346,4.225-0.788l0.504,1.985c-0.977,0.442-2.68,0.978-5.105,0.978c-4.697,0-7.504-3.121-7.504-7.724
		c0-4.602,2.711-8.196,7.156-8.196c5.012,0,6.305,4.351,6.305,7.156c0,0.568-0.031,0.978-0.094,1.292H484.502z M492.635,260.461
		c0.031-1.734-0.725-4.477-3.846-4.477c-2.838,0-4.035,2.554-4.256,4.477H492.635z"/>
	<path clip-path="url(#SVGID_2_)" fill="#0042DF" d="M498.75,259.294c0-1.954-0.063-3.531-0.127-4.981h2.459l0.158,2.616h0.063
		c1.104-1.859,2.932-2.931,5.424-2.931c3.719,0,6.494,3.121,6.494,7.723c0,5.486-3.373,8.197-6.969,8.197
		c-2.018,0-3.781-0.883-4.695-2.396h-0.064v8.291h-2.742V259.294z M501.492,263.361c0,0.409,0.031,0.788,0.127,1.135
		c0.504,1.923,2.176,3.247,4.16,3.247c2.932,0,4.635-2.397,4.635-5.896c0-3.026-1.607-5.642-4.539-5.642
		c-1.893,0-3.689,1.324-4.193,3.404c-0.094,0.347-0.189,0.757-0.189,1.104V263.361z"/>
	<path clip-path="url(#SVGID_2_)" fill="#0042DF" d="M387.131,306.453c-1.23,0.473-3.689,1.166-6.559,1.166
		c-3.215,0-5.863-0.819-7.943-2.806c-1.829-1.765-2.963-4.602-2.963-7.913c0-6.336,4.381-10.97,11.506-10.97
		c2.459,0,4.414,0.536,5.328,0.977l-0.693,2.238c-1.135-0.536-2.555-0.914-4.696-0.914c-5.171,0-8.543,3.216-8.543,8.543
		c0,5.391,3.214,8.575,8.195,8.575c1.797,0,3.027-0.252,3.658-0.567v-6.337h-4.289v-2.207h7V306.453z"/>
	<path clip-path="url(#SVGID_2_)" fill="#0042DF" d="M405.16,299.644c0,5.642-3.939,8.101-7.598,8.101
		c-4.098,0-7.313-3.026-7.313-7.849c0-5.075,3.373-8.071,7.564-8.071C402.197,291.825,405.16,295.009,405.16,299.644
		 M393.086,299.801c0,3.342,1.893,5.864,4.604,5.864c2.648,0,4.633-2.491,4.633-5.927c0-2.584-1.291-5.832-4.57-5.832
		C394.506,293.906,393.086,296.933,393.086,299.801"/>
	<path clip-path="url(#SVGID_2_)" fill="#0042DF" d="M408.658,296.9c0-1.797-0.031-3.341-0.127-4.76h2.428l0.127,3.027h0.094
		c0.693-2.049,2.396-3.342,4.256-3.342c0.285,0,0.504,0.031,0.758,0.063v2.616c-0.285-0.063-0.568-0.063-0.947-0.063
		c-1.953,0-3.342,1.45-3.719,3.531c-0.063,0.378-0.096,0.851-0.096,1.292v8.134h-2.773V296.9z"/>
	<path clip-path="url(#SVGID_2_)" fill="#0042DF" d="M418.588,304.593c0.852,0.504,2.301,1.072,3.688,1.072
		c1.986,0,2.932-0.978,2.932-2.271c0-1.324-0.787-2.018-2.805-2.774c-2.775-1.008-4.066-2.491-4.066-4.319
		c0-2.459,2.018-4.477,5.264-4.477c1.545,0,2.9,0.411,3.721,0.946l-0.662,2.017c-0.6-0.378-1.703-0.914-3.121-0.914
		c-1.639,0-2.521,0.947-2.521,2.081c0,1.261,0.883,1.828,2.867,2.617c2.617,0.977,4.004,2.301,4.004,4.571
		c0,2.711-2.111,4.602-5.674,4.602c-1.67,0-3.215-0.441-4.287-1.071L418.588,304.593z"/>
	<path clip-path="url(#SVGID_2_)" fill="#0042DF" d="M431.07,304.593c0.852,0.504,2.301,1.072,3.688,1.072
		c1.986,0,2.932-0.978,2.932-2.271c0-1.324-0.787-2.018-2.805-2.774c-2.775-1.008-4.066-2.491-4.066-4.319
		c0-2.459,2.018-4.477,5.264-4.477c1.545,0,2.9,0.411,3.721,0.946l-0.662,2.017c-0.6-0.378-1.703-0.914-3.121-0.914
		c-1.639,0-2.521,0.947-2.521,2.081c0,1.261,0.883,1.828,2.867,2.617c2.617,0.977,4.004,2.301,4.004,4.571
		c0,2.711-2.111,4.602-5.674,4.602c-1.67,0-3.215-0.441-4.287-1.071L431.07,304.593z"/>
	<path clip-path="url(#SVGID_2_)" fill="#0042DF" d="M445.475,300.273c0.064,3.752,2.428,5.297,5.234,5.297
		c1.986,0,3.215-0.346,4.225-0.788l0.504,1.985c-0.979,0.442-2.68,0.978-5.107,0.978c-4.697,0-7.502-3.121-7.502-7.724
		c0-4.602,2.711-8.196,7.156-8.196c5.012,0,6.305,4.351,6.305,7.156c0,0.568-0.033,0.978-0.096,1.292H445.475z M453.609,298.288
		c0.031-1.734-0.727-4.477-3.846-4.477c-2.838,0-4.035,2.554-4.256,4.477H453.609z"/>
	<rect x="459.725" y="285.016" clip-path="url(#SVGID_2_)" fill="#0042DF" width="2.773" height="22.383"/>
</g>
</svg>
